<svg preserveAspectRatio="none" width="100%" height="100%" overflow="visible" style="display: block;" viewBox="0 0 22.2 22.2" fill="none" xmlns="http://www.w3.org/2000/svg">
<g id="money-security">
<path id="Vector" d="M11.1 8.32499C10.0782 8.32499 9.24999 8.9462 9.24999 9.71249C9.24999 10.4788 10.0782 11.1 11.1 11.1C12.1217 11.1 12.95 11.7212 12.95 12.4875C12.95 13.2538 12.1217 13.875 11.1 13.875M11.1 8.32499C11.9055 8.32499 12.5907 8.71109 12.8447 9.24999M11.1 8.32499V7.4M11.1 13.875C10.2945 13.875 9.60926 13.4889 9.35526 12.95M11.1 13.875V14.8" stroke="var(--stroke-0, white)" stroke-width="1.3875" stroke-linecap="round"/>
<path id="Vector_2" d="M19.425 10.3445V7.65926C19.425 6.14226 19.425 5.38376 19.0512 4.88889C18.6774 4.39402 17.8322 4.15377 16.1419 3.67327C14.987 3.34498 13.969 2.94948 13.1556 2.58842C12.0466 2.09614 11.4922 1.85 11.1 1.85C10.7078 1.85 10.1533 2.09614 9.04438 2.58842C8.23101 2.94948 7.213 3.34497 6.05813 3.67327C4.36778 4.15377 3.5226 4.39402 3.1488 4.88889C2.775 5.38376 2.775 6.14226 2.775 7.65926V10.3445C2.775 15.5479 7.45806 18.6697 9.79944 19.9054C10.361 20.2018 10.6417 20.35 11.1 20.35C11.5582 20.35 11.839 20.2018 12.4005 19.9054C14.7419 18.6697 19.425 15.5479 19.425 10.3445Z" stroke="var(--stroke-0, white)" stroke-width="1.3875" stroke-linecap="round"/>
</g>
</svg>
