<svg preserveAspectRatio="none" width="100%" height="100%" overflow="visible" style="display: block;" viewBox="0 0 22.2 22.2" fill="none" xmlns="http://www.w3.org/2000/svg">
<g id="star">
<path id="Vector" d="M12.698 3.18584L14.3259 6.46839C14.5479 6.92533 15.1398 7.36362 15.6393 7.44755L18.5896 7.94179C20.4765 8.25886 20.9205 9.63903 19.5608 11.0005L17.2671 13.3132C16.8786 13.7049 16.6659 14.4602 16.7861 15.0012L17.4428 17.864C17.9607 20.1301 16.7676 21.0067 14.7791 19.8223L12.0136 18.1718C11.5142 17.8734 10.6911 17.8734 10.1823 18.1718L7.41691 19.8223C5.43763 21.0067 4.23527 20.1208 4.75321 17.864L5.40989 15.0012C5.53012 14.4602 5.3174 13.7049 4.92893 13.3132L2.63519 11.0005C1.28484 9.63903 1.71955 8.25886 3.60633 7.94179L6.55676 7.44755C7.04695 7.36362 7.63889 6.92533 7.86086 6.46839L9.48866 3.18584C10.3766 1.40469 11.8194 1.40469 12.698 3.18584Z" stroke="var(--stroke-0, white)" stroke-width="1.3875" stroke-linecap="round" stroke-linejoin="round"/>
</g>
</svg>
