<svg preserveAspectRatio="none" width="100%" height="100%" overflow="visible" style="display: block;" viewBox="0 0 15.8333 15.8333" fill="none" xmlns="http://www.w3.org/2000/svg">
<g id="whatsapp" clip-path="url(#clip0_259_15024)">
<path id="Vector" fill-rule="evenodd" clip-rule="evenodd" d="M7.91927 15.3385C11.745 15.3385 14.8464 12.2372 14.8464 8.41146C14.8464 4.58573 11.745 1.48438 7.91927 1.48438C4.09355 1.48438 0.992188 4.58573 0.992188 8.41146C0.992188 9.65383 1.31924 10.8198 1.89195 11.828L0.992188 15.3385L4.61152 14.4993C5.59444 15.0344 6.72133 15.3385 7.91927 15.3385ZM7.91927 14.2729C11.1564 14.2729 13.7807 11.6486 13.7807 8.41146C13.7807 5.17433 11.1564 2.55008 7.91927 2.55008C4.68212 2.55008 2.05789 5.17433 2.05789 8.41146C2.05789 9.66135 2.4491 10.8199 3.11575 11.7712L2.59075 13.74L4.59424 13.2391C5.53903 13.8911 6.68457 14.2729 7.91927 14.2729Z" fill="var(--fill-0, #BFC8D0)"/>
<path id="Vector_2" d="M13.8555 7.91669C13.8555 11.1959 11.1972 13.8542 7.91797 13.8542C6.66723 13.8542 5.5068 13.4675 4.54975 12.8071L2.52024 13.3144L3.05207 11.3201C2.37676 10.3564 1.98047 9.18282 1.98047 7.91669C1.98047 4.6375 4.63878 1.97919 7.91797 1.97919C11.1972 1.97919 13.8555 4.6375 13.8555 7.91669Z" fill="url(#paint0_linear_259_15024)"/>
<path id="Vector_3" fill-rule="evenodd" clip-rule="evenodd" d="M7.91927 14.8437C11.745 14.8437 14.8464 11.7423 14.8464 7.91659C14.8464 4.09086 11.745 0.989502 7.91927 0.989502C4.09355 0.989502 0.992188 4.09086 0.992188 7.91659C0.992188 9.15896 1.31924 10.3249 1.89195 11.3331L0.992188 14.8437L4.61152 14.0044C5.59444 14.5396 6.72133 14.8437 7.91927 14.8437ZM7.91927 13.778C11.1564 13.778 13.7807 11.1538 13.7807 7.91659C13.7807 4.67944 11.1564 2.05521 7.91927 2.05521C4.68212 2.05521 2.05789 4.67944 2.05789 7.91659C2.05789 9.16648 2.4491 10.325 3.11575 11.2763L2.59075 13.2451L4.59424 12.7442C5.53903 13.3962 6.68457 13.778 7.91927 13.778Z" fill="var(--fill-0, white)"/>
<path id="Vector_4" d="M6.18766 4.7005C6.023 4.36969 5.77031 4.39898 5.51509 4.39898C5.05894 4.39898 4.34766 4.94537 4.34766 5.96226C4.34766 6.79564 4.71489 7.70794 5.95234 9.07257C7.14657 10.3896 8.71575 11.0709 10.0184 11.0477C11.3211 11.0245 11.5892 9.90353 11.5892 9.52491C11.5892 9.35713 11.485 9.27341 11.4133 9.25065C10.9694 9.03764 10.1506 8.64067 9.96431 8.56605C9.77802 8.49149 9.68074 8.59238 9.62028 8.64725C9.45136 8.80825 9.11648 9.28271 9.00179 9.38944C8.88715 9.49616 8.7162 9.44213 8.64505 9.40181C8.38325 9.29676 7.67347 8.98104 7.10773 8.43256C6.40799 7.7543 6.36693 7.52096 6.23511 7.31319C6.12967 7.14704 6.20706 7.04506 6.24565 7.00048C6.39642 6.82656 6.60457 6.55799 6.69794 6.42455C6.79126 6.2911 6.71719 6.08843 6.67271 5.96226C6.48147 5.41948 6.31943 4.96516 6.18766 4.7005Z" fill="var(--fill-0, white)"/>
</g>
<defs>
<linearGradient id="paint0_linear_259_15024" x1="13.1133" y1="3.46357" x2="1.98047" y2="13.8542" gradientUnits="userSpaceOnUse">
<stop stop-color="#EE3939"/>
<stop offset="1" stop-color="#A62020"/>
</linearGradient>
<clipPath id="clip0_259_15024">
<rect width="15.8333" height="15.8333" fill="white"/>
</clipPath>
</defs>
</svg>
