<svg preserveAspectRatio="none" width="100%" height="100%" overflow="visible" style="display: block;" viewBox="0 0 22.2 22.2" fill="none" xmlns="http://www.w3.org/2000/svg">
<g id="bitcoin-graph">
<path id="Vector" d="M12.4875 18.0375V10.6375C12.4875 9.7654 12.4875 9.32936 12.2166 9.05842C11.9456 8.78749 11.5096 8.78749 10.6375 8.78749C9.7654 8.78749 9.32936 8.78749 9.05842 9.05842C8.78749 9.32936 8.78749 9.7654 8.78749 10.6375V18.0375C8.78749 18.9096 8.78749 19.3456 9.05842 19.6166C9.32936 19.8875 9.7654 19.8875 10.6375 19.8875C11.5096 19.8875 11.9456 19.8875 12.2166 19.6166C12.4875 19.3456 12.4875 18.9096 12.4875 18.0375Z" stroke="var(--stroke-0, white)" stroke-width="1.3875" stroke-linecap="round" stroke-linejoin="round"/>
<path id="Vector_2" d="M18.9625 11.5625V18.0375C18.9625 18.9096 18.9625 19.3456 18.6916 19.6166C18.4206 19.8875 17.9846 19.8875 17.1125 19.8875C16.2404 19.8875 15.8044 19.8875 15.5334 19.6166C15.2625 19.3456 15.2625 18.9096 15.2625 18.0375V11.5625" stroke="var(--stroke-0, white)" stroke-width="1.3875" stroke-linecap="round" stroke-linejoin="round"/>
<path id="Vector_3" d="M16.1297 8.47916V3.54583M17.575 3.54583V2.3125M17.575 9.71249V8.47916M16.1297 6.0125H19.0203M19.0203 6.0125C19.4993 6.0125 19.8875 6.42664 19.8875 6.9375V7.55416C19.8875 8.06502 19.4993 8.47916 19.0203 8.47916H15.2625M19.0203 6.0125C19.4993 6.0125 19.8875 5.59836 19.8875 5.0875V4.47083C19.8875 3.95997 19.4993 3.54583 19.0203 3.54583H15.2625" stroke="var(--stroke-0, white)" stroke-width="1.3875" stroke-linecap="round" stroke-linejoin="round"/>
<path id="Vector_4" d="M6.0125 18.0375V13.4125C6.0125 12.5404 6.0125 12.1044 5.74157 11.8334C5.47064 11.5625 5.0346 11.5625 4.1625 11.5625C3.2904 11.5625 2.85435 11.5625 2.58342 11.8334C2.3125 12.1044 2.3125 12.5404 2.3125 13.4125V18.0375C2.3125 18.9096 2.3125 19.3456 2.58342 19.6166C2.85435 19.8875 3.2904 19.8875 4.1625 19.8875C5.0346 19.8875 5.47064 19.8875 5.74157 19.6166C6.0125 19.3456 6.0125 18.9096 6.0125 18.0375Z" stroke="var(--stroke-0, white)" stroke-width="1.3875" stroke-linecap="round" stroke-linejoin="round"/>
</g>
</svg>
